<svg viewBox="0 0 100 75" style="width:100%;max-width:700px;opacity:0.85" aria-hidden="true"><line x1="0" y1="0" x2="100" y2="0" stroke="#00e5ff" stroke-width="0.08" stroke-opacity="0.18"></line><line x1="0" y1="7.5" x2="100" y2="7.5" stroke="#00e5ff" stroke-width="0.08" stroke-opacity="0.18"></line><line x1="0" y1="15" x2="100" y2="15" stroke="#00e5ff" stroke-width="0.08" stroke-opacity="0.18"></line><line x1="0" y1="22.5" x2="100" y2="22.5" stroke="#00e5ff" stroke-width="0.08" stroke-opacity="0.18"></line><line x1="0" y1="30" x2="100" y2="30" stroke="#00e5ff" stroke-width="0.08" stroke-opacity="0.18"></line><line x1="0" y1="37.5" x2="100" y2="37.5" stroke="#00e5ff" stroke-width="0.08" stroke-opacity="0.18"></line><line x1="0" y1="45" x2="100" y2="45" stroke="#00e5ff" stroke-width="0.08" stroke-opacity="0.18"></line><line x1="0" y1="52.5" x2="100" y2="52.5" stroke="#00e5ff" stroke-width="0.08" stroke-opacity="0.18"></line><line x1="0" y1="60" x2="100" y2="60" stroke="#00e5ff" stroke-width="0.08" stroke-opacity="0.18"></line><line x1="0" y1="67.5" x2="100" y2="67.5" stroke="#00e5ff" stroke-width="0.08" stroke-opacity="0.18"></line><line x1="0" y1="0" x2="0" y2="75" stroke="#00e5ff" stroke-width="0.08" stroke-opacity="0.18"></line><line x1="8" y1="0" x2="8" y2="75" stroke="#00e5ff" stroke-width="0.08" stroke-opacity="0.18"></line><line x1="16" y1="0" x2="16" y2="75" stroke="#00e5ff" stroke-width="0.08" stroke-opacity="0.18"></line><line x1="24" y1="0" x2="24" y2="75" stroke="#00e5ff" stroke-width="0.08" stroke-opacity="0.18"></line><line x1="32" y1="0" x2="32" y2="75" stroke="#00e5ff" stroke-width="0.08" stroke-opacity="0.18"></line><line x1="40" y1="0" x2="40" y2="75" stroke="#00e5ff" stroke-width="0.08" stroke-opacity="0.18"></line><line x1="48" y1="0" x2="48" y2="75" stroke="#00e5ff" stroke-width="0.08" stroke-opacity="0.18"></line><line x1="56" y1="0" x2="56" y2="75" stroke="#00e5ff" stroke-width="0.08" stroke-opacity="0.18"></line><line x1="64" y1="0" x2="64" y2="75" stroke="#00e5ff" stroke-width="0.08" stroke-opacity="0.18"></line><line x1="72" y1="0" x2="72" y2="75" stroke="#00e5ff" stroke-width="0.08" stroke-opacity="0.18"></line><line x1="80" y1="0" x2="80" y2="75" stroke="#00e5ff" stroke-width="0.08" stroke-opacity="0.18"></line><line x1="88" y1="0" x2="88" y2="75" stroke="#00e5ff" stroke-width="0.08" stroke-opacity="0.18"></line><line x1="96" y1="0" x2="96" y2="75" stroke="#00e5ff" stroke-width="0.08" stroke-opacity="0.18"></line><g><circle cx="48" cy="28" r="0.35" fill="#00e5ff" fill-opacity="0.4"></circle></g><g><circle cx="50" cy="27" r="2.4499999999999997" fill="#00e5ff" fill-opacity="0.08399999999999999"></circle><circle cx="50" cy="27" r="0.7" fill="#00e5ff" fill-opacity="0.8200000000000001"></circle></g><g><circle cx="52" cy="26" r="2.2749999999999995" fill="#00e5ff" fill-opacity="0.072"></circle><circle cx="52" cy="26" r="0.6499999999999999" fill="#00e5ff" fill-opacity="0.76"></circle></g><g><circle cx="54" cy="26" r="0.35" fill="#00e5ff" fill-opacity="0.4"></circle></g><g><circle cx="53" cy="28" r="0.35" fill="#00e5ff" fill-opacity="0.4"></circle></g><g><circle cx="51" cy="29" r="0.35" fill="#00e5ff" fill-opacity="0.4"></circle></g><g><circle cx="49" cy="30" r="1.5749999999999997" fill="#00e5ff" fill-opacity="0.024"></circle><circle cx="49" cy="30" r="0.44999999999999996" fill="#00e5ff" fill-opacity="0.52"></circle></g><g><circle cx="47" cy="29" r="2.8000000000000003" fill="#00e5ff" fill-opacity="0.108"></circle><circle cx="47" cy="29" r="0.8" fill="#00e5ff" fill-opacity="0.9400000000000001"></circle></g><g><circle cx="46" cy="27" r="1.9250000000000003" fill="#00e5ff" fill-opacity="0.048"></circle><circle cx="46" cy="27" r="0.55" fill="#00e5ff" fill-opacity="0.64"></circle></g><g><circle cx="48" cy="24" r="0.35" fill="#00e5ff" fill-opacity="0.4"></circle></g><g><circle cx="50" cy="23" r="0.35" fill="#00e5ff" fill-opacity="0.4"></circle></g><g><circle cx="52" cy="24" r="0.35" fill="#00e5ff" fill-opacity="0.4"></circle></g><g><circle cx="55" cy="24" r="1.9250000000000003" fill="#00e5ff" fill-opacity="0.048"></circle><circle cx="55" cy="24" r="0.55" fill="#00e5ff" fill-opacity="0.64"></circle></g><g><circle cx="57" cy="25" r="2.8000000000000003" fill="#00e5ff" fill-opacity="0.108"></circle><circle cx="57" cy="25" r="0.8" fill="#00e5ff" fill-opacity="0.9400000000000001"></circle></g><g><circle cx="55" cy="27" r="1.5749999999999997" fill="#00e5ff" fill-opacity="0.024"></circle><circle cx="55" cy="27" r="0.44999999999999996" fill="#00e5ff" fill-opacity="0.52"></circle></g><g><circle cx="53" cy="30" r="0.35" fill="#00e5ff" fill-opacity="0.4"></circle></g><g><circle cx="51" cy="31" r="0.35" fill="#00e5ff" fill-opacity="0.4"></circle></g><g><circle cx="49" cy="32" r="0.35" fill="#00e5ff" fill-opacity="0.4"></circle></g><g><circle cx="47" cy="31" r="2.2749999999999995" fill="#00e5ff" fill-opacity="0.072"></circle><circle cx="47" cy="31" r="0.6499999999999999" fill="#00e5ff" fill-opacity="0.76"></circle></g><g><circle cx="50" cy="25" r="2.4499999999999997" fill="#00e5ff" fill-opacity="0.08399999999999999"></circle><circle cx="50" cy="25" r="0.7" fill="#00e5ff" fill-opacity="0.8200000000000001"></circle></g><g><circle cx="52" cy="28" r="0.35" fill="#00e5ff" fill-opacity="0.4"></circle></g><g><circle cx="54" cy="29" r="0.35" fill="#00e5ff" fill-opacity="0.4"></circle></g><g><circle cx="56" cy="27" r="0.35" fill="#00e5ff" fill-opacity="0.4"></circle></g><g><circle cx="58" cy="26" r="0.39999999999999997" fill="#00e5ff" fill-opacity="0.46"></circle></g><g><circle cx="60" cy="25" r="2.625" fill="#00e5ff" fill-opacity="0.096"></circle><circle cx="60" cy="25" r="0.75" fill="#00e5ff" fill-opacity="0.88"></circle></g><g><circle cx="57" cy="28" r="2.1" fill="#00e5ff" fill-opacity="0.06"></circle><circle cx="57" cy="28" r="0.6" fill="#00e5ff" fill-opacity="0.7"></circle></g><g><circle cx="55" cy="30" r="0.35" fill="#00e5ff" fill-opacity="0.4"></circle></g><g><circle cx="53" cy="32" r="0.35" fill="#00e5ff" fill-opacity="0.4"></circle></g><g><circle cx="51" cy="33" r="0.35" fill="#00e5ff" fill-opacity="0.4"></circle></g><g><circle cx="49" cy="34" r="1.75" fill="#00e5ff" fill-opacity="0.036"></circle><circle cx="49" cy="34" r="0.5" fill="#00e5ff" fill-opacity="0.5800000000000001"></circle></g><g><circle cx="20" cy="28" r="2.975" fill="#00e5ff" fill-opacity="0.12"></circle><circle cx="20" cy="28" r="0.85" fill="#00e5ff" fill-opacity="1"></circle></g><g><circle cx="22" cy="26" r="1.75" fill="#00e5ff" fill-opacity="0.036"></circle><circle cx="22" cy="26" r="0.5" fill="#00e5ff" fill-opacity="0.5800000000000001"></circle></g><g><circle cx="24" cy="25" r="0.35" fill="#00e5ff" fill-opacity="0.4"></circle></g><g><circle cx="26" cy="27" r="0.35" fill="#00e5ff" fill-opacity="0.4"></circle></g><g><circle cx="28" cy="28" r="0.35" fill="#00e5ff" fill-opacity="0.4"></circle></g><g><circle cx="30" cy="27" r="2.1" fill="#00e5ff" fill-opacity="0.06"></circle><circle cx="30" cy="27" r="0.6" fill="#00e5ff" fill-opacity="0.7"></circle></g><g><circle cx="25" cy="30" r="2.625" fill="#00e5ff" fill-opacity="0.096"></circle><circle cx="25" cy="30" r="0.75" fill="#00e5ff" fill-opacity="0.88"></circle></g><g><circle cx="27" cy="32" r="0.39999999999999997" fill="#00e5ff" fill-opacity="0.46"></circle></g><g><circle cx="29" cy="33" r="0.35" fill="#00e5ff" fill-opacity="0.4"></circle></g><g><circle cx="22" cy="30" r="0.35" fill="#00e5ff" fill-opacity="0.4"></circle></g><g><circle cx="18" cy="32" r="0.35" fill="#00e5ff" fill-opacity="0.4"></circle></g><g><circle cx="20" cy="35" r="2.4499999999999997" fill="#00e5ff" fill-opacity="0.08399999999999999"></circle><circle cx="20" cy="35" r="0.7" fill="#00e5ff" fill-opacity="0.8200000000000001"></circle></g><g><circle cx="24" cy="33" r="2.2749999999999995" fill="#00e5ff" fill-opacity="0.072"></circle><circle cx="24" cy="33" r="0.6499999999999999" fill="#00e5ff" fill-opacity="0.76"></circle></g><g><circle cx="26" cy="35" r="0.35" fill="#00e5ff" fill-opacity="0.4"></circle></g><g><circle cx="28" cy="36" r="0.35" fill="#00e5ff" fill-opacity="0.4"></circle></g><g><circle cx="30" cy="35" r="0.35" fill="#00e5ff" fill-opacity="0.4"></circle></g><g><circle cx="32" cy="33" r="1.5749999999999997" fill="#00e5ff" fill-opacity="0.024"></circle><circle cx="32" cy="33" r="0.44999999999999996" fill="#00e5ff" fill-opacity="0.52"></circle></g><g><circle cx="34" cy="30" r="2.8000000000000003" fill="#00e5ff" fill-opacity="0.108"></circle><circle cx="34" cy="30" r="0.8" fill="#00e5ff" fill-opacity="0.9400000000000001"></circle></g><g><circle cx="35" cy="28" r="1.9250000000000003" fill="#00e5ff" fill-opacity="0.048"></circle><circle cx="35" cy="28" r="0.55" fill="#00e5ff" fill-opacity="0.64"></circle></g><g><circle cx="33" cy="26" r="0.35" fill="#00e5ff" fill-opacity="0.4"></circle></g><g><circle cx="65" cy="28" r="0.35" fill="#00e5ff" fill-opacity="0.4"></circle></g><g><circle cx="68" cy="26" r="0.35" fill="#00e5ff" fill-opacity="0.4"></circle></g><g><circle cx="70" cy="27" r="1.9250000000000003" fill="#00e5ff" fill-opacity="0.048"></circle><circle cx="70" cy="27" r="0.55" fill="#00e5ff" fill-opacity="0.64"></circle></g><g><circle cx="72" cy="28" r="2.8000000000000003" fill="#00e5ff" fill-opacity="0.108"></circle><circle cx="72" cy="28" r="0.8" fill="#00e5ff" fill-opacity="0.9400000000000001"></circle></g><g><circle cx="74" cy="27" r="1.5749999999999997" fill="#00e5ff" fill-opacity="0.024"></circle><circle cx="74" cy="27" r="0.44999999999999996" fill="#00e5ff" fill-opacity="0.52"></circle></g><g><circle cx="76" cy="26" r="0.35" fill="#00e5ff" fill-opacity="0.4"></circle></g><g><circle cx="78" cy="28" r="0.35" fill="#00e5ff" fill-opacity="0.4"></circle></g><g><circle cx="80" cy="27" r="0.35" fill="#00e5ff" fill-opacity="0.4"></circle></g><g><circle cx="75" cy="30" r="2.2749999999999995" fill="#00e5ff" fill-opacity="0.072"></circle><circle cx="75" cy="30" r="0.6499999999999999" fill="#00e5ff" fill-opacity="0.76"></circle></g><g><circle cx="73" cy="32" r="2.4499999999999997" fill="#00e5ff" fill-opacity="0.08399999999999999"></circle><circle cx="73" cy="32" r="0.7" fill="#00e5ff" fill-opacity="0.8200000000000001"></circle></g><g><circle cx="70" cy="30" r="0.35" fill="#00e5ff" fill-opacity="0.4"></circle></g><g><circle cx="67" cy="30" r="0.35" fill="#00e5ff" fill-opacity="0.4"></circle></g><g><circle cx="65" cy="32" r="0.35" fill="#00e5ff" fill-opacity="0.4"></circle></g><g><circle cx="68" cy="34" r="0.39999999999999997" fill="#00e5ff" fill-opacity="0.46"></circle></g><g><circle cx="71" cy="34" r="2.625" fill="#00e5ff" fill-opacity="0.096"></circle><circle cx="71" cy="34" r="0.75" fill="#00e5ff" fill-opacity="0.88"></circle></g><g><circle cx="74" cy="32" r="2.1" fill="#00e5ff" fill-opacity="0.06"></circle><circle cx="74" cy="32" r="0.6" fill="#00e5ff" fill-opacity="0.7"></circle></g><g><circle cx="77" cy="31" r="0.35" fill="#00e5ff" fill-opacity="0.4"></circle></g><g><circle cx="79" cy="30" r="0.35" fill="#00e5ff" fill-opacity="0.4"></circle></g><g><circle cx="76" cy="33" r="0.35" fill="#00e5ff" fill-opacity="0.4"></circle></g><g><circle cx="72" cy="36" r="1.75" fill="#00e5ff" fill-opacity="0.036"></circle><circle cx="72" cy="36" r="0.5" fill="#00e5ff" fill-opacity="0.5800000000000001"></circle></g><g><circle cx="68" cy="36" r="2.975" fill="#00e5ff" fill-opacity="0.12"></circle><circle cx="68" cy="36" r="0.85" fill="#00e5ff" fill-opacity="1"></circle></g><g><circle cx="65" cy="34" r="1.75" fill="#00e5ff" fill-opacity="0.036"></circle><circle cx="65" cy="34" r="0.5" fill="#00e5ff" fill-opacity="0.5800000000000001"></circle></g><g><circle cx="63" cy="32" r="0.35" fill="#00e5ff" fill-opacity="0.4"></circle></g><g><circle cx="62" cy="30" r="0.35" fill="#00e5ff" fill-opacity="0.4"></circle></g><g><circle cx="64" cy="28" r="0.35" fill="#00e5ff" fill-opacity="0.4"></circle></g><g><circle cx="66" cy="26" r="2.1" fill="#00e5ff" fill-opacity="0.06"></circle><circle cx="66" cy="26" r="0.6" fill="#00e5ff" fill-opacity="0.7"></circle></g><g><circle cx="80" cy="33" r="2.625" fill="#00e5ff" fill-opacity="0.096"></circle><circle cx="80" cy="33" r="0.75" fill="#00e5ff" fill-opacity="0.88"></circle></g><g><circle cx="82" cy="31" r="0.39999999999999997" fill="#00e5ff" fill-opacity="0.46"></circle></g><g><circle cx="84" cy="30" r="0.35" fill="#00e5ff" fill-opacity="0.4"></circle></g><g><circle cx="85" cy="28" r="0.35" fill="#00e5ff" fill-opacity="0.4"></circle></g><g><circle cx="27" cy="50" r="0.35" fill="#00e5ff" fill-opacity="0.4"></circle></g><g><circle cx="29" cy="52" r="2.4499999999999997" fill="#00e5ff" fill-opacity="0.08399999999999999"></circle><circle cx="29" cy="52" r="0.7" fill="#00e5ff" fill-opacity="0.8200000000000001"></circle></g><g><circle cx="31" cy="54" r="2.2749999999999995" fill="#00e5ff" fill-opacity="0.072"></circle><circle cx="31" cy="54" r="0.6499999999999999" fill="#00e5ff" fill-opacity="0.76"></circle></g><g><circle cx="28" cy="56" r="0.35" fill="#00e5ff" fill-opacity="0.4"></circle></g><g><circle cx="26" cy="54" r="0.35" fill="#00e5ff" fill-opacity="0.4"></circle></g><g><circle cx="30" cy="58" r="0.35" fill="#00e5ff" fill-opacity="0.4"></circle></g><g><circle cx="32" cy="60" r="1.5749999999999997" fill="#00e5ff" fill-opacity="0.024"></circle><circle cx="32" cy="60" r="0.44999999999999996" fill="#00e5ff" fill-opacity="0.52"></circle></g><g><circle cx="28" cy="62" r="2.8000000000000003" fill="#00e5ff" fill-opacity="0.108"></circle><circle cx="28" cy="62" r="0.8" fill="#00e5ff" fill-opacity="0.9400000000000001"></circle></g><g><circle cx="25" cy="60" r="1.9250000000000003" fill="#00e5ff" fill-opacity="0.048"></circle><circle cx="25" cy="60" r="0.55" fill="#00e5ff" fill-opacity="0.64"></circle></g><g><circle cx="27" cy="58" r="0.35" fill="#00e5ff" fill-opacity="0.4"></circle></g><g><circle cx="48" cy="42" r="0.35" fill="#00e5ff" fill-opacity="0.4"></circle></g><g><circle cx="50" cy="44" r="0.35" fill="#00e5ff" fill-opacity="0.4"></circle></g><g><circle cx="52" cy="46" r="1.9250000000000003" fill="#00e5ff" fill-opacity="0.048"></circle><circle cx="52" cy="46" r="0.55" fill="#00e5ff" fill-opacity="0.64"></circle></g><g><circle cx="49" cy="46" r="2.8000000000000003" fill="#00e5ff" fill-opacity="0.108"></circle><circle cx="49" cy="46" r="0.8" fill="#00e5ff" fill-opacity="0.9400000000000001"></circle></g><g><circle cx="47" cy="44" r="1.5749999999999997" fill="#00e5ff" fill-opacity="0.024"></circle><circle cx="47" cy="44" r="0.44999999999999996" fill="#00e5ff" fill-opacity="0.52"></circle></g><g><circle cx="51" cy="48" r="0.35" fill="#00e5ff" fill-opacity="0.4"></circle></g><g><circle cx="53" cy="50" r="0.35" fill="#00e5ff" fill-opacity="0.4"></circle></g><g><circle cx="49" cy="50" r="0.35" fill="#00e5ff" fill-opacity="0.4"></circle></g><g><circle cx="47" cy="48" r="2.2749999999999995" fill="#00e5ff" fill-opacity="0.072"></circle><circle cx="47" cy="48" r="0.6499999999999999" fill="#00e5ff" fill-opacity="0.76"></circle></g><g><circle cx="52" cy="52" r="2.4499999999999997" fill="#00e5ff" fill-opacity="0.08399999999999999"></circle><circle cx="52" cy="52" r="0.7" fill="#00e5ff" fill-opacity="0.8200000000000001"></circle></g><g><circle cx="78" cy="58" r="0.35" fill="#00e5ff" fill-opacity="0.4"></circle></g><g><circle cx="80" cy="57" r="0.35" fill="#00e5ff" fill-opacity="0.4"></circle></g><g><circle cx="82" cy="58" r="0.35" fill="#00e5ff" fill-opacity="0.4"></circle></g><g><circle cx="80" cy="60" r="0.39999999999999997" fill="#00e5ff" fill-opacity="0.46"></circle></g><g><circle cx="78" cy="60" r="2.625" fill="#00e5ff" fill-opacity="0.096"></circle><circle cx="78" cy="60" r="0.75" fill="#00e5ff" fill-opacity="0.88"></circle></g><g><circle cx="83" cy="56" r="2.1" fill="#00e5ff" fill-opacity="0.06"></circle><circle cx="83" cy="56" r="0.6" fill="#00e5ff" fill-opacity="0.7"></circle></g><g><circle cx="85" cy="57" r="0.35" fill="#00e5ff" fill-opacity="0.4"></circle></g><g><circle cx="79" cy="55" r="0.35" fill="#00e5ff" fill-opacity="0.4"></circle></g><g><circle cx="81" cy="55" r="0.35" fill="#00e5ff" fill-opacity="0.4"></circle></g><g><circle cx="83" cy="60" r="1.75" fill="#00e5ff" fill-opacity="0.036"></circle><circle cx="83" cy="60" r="0.5" fill="#00e5ff" fill-opacity="0.5800000000000001"></circle></g><line x1="48" y1="28" x2="50" y2="27" stroke="#00e5ff" stroke-width="0.12" stroke-opacity="0.22"></line><line x1="50" y1="27" x2="52" y2="26" stroke="#00e5ff" stroke-width="0.12" stroke-opacity="0.22"></line><line x1="52" y1="26" x2="54" y2="26" stroke="#00e5ff" stroke-width="0.12" stroke-opacity="0.22"></line><line x1="54" y1="26" x2="53" y2="28" stroke="#00e5ff" stroke-width="0.12" stroke-opacity="0.22"></line><line x1="53" y1="28" x2="51" y2="29" stroke="#00e5ff" stroke-width="0.12" stroke-opacity="0.22"></line><line x1="51" y1="29" x2="49" y2="30" stroke="#00e5ff" stroke-width="0.12" stroke-opacity="0.22"></line><line x1="50" y1="25" x2="52" y2="24" stroke="#00e5ff" stroke-width="0.12" stroke-opacity="0.22"></line><line x1="52" y1="24" x2="55" y2="24" stroke="#00e5ff" stroke-width="0.12" stroke-opacity="0.22"></line><line x1="55" y1="24" x2="57" y2="25" stroke="#00e5ff" stroke-width="0.12" stroke-opacity="0.22"></line><line x1="55" y1="27" x2="57" y2="25" stroke="#00e5ff" stroke-width="0.12" stroke-opacity="0.22"></line></svg>